<?xml version="1.0" standalone="no"?>
<!DOCTYPE svg PUBLIC "-//W3C//DTD SVG 20010904//EN"
 "http://www.w3.org/TR/2001/REC-SVG-20010904/DTD/svg10.dtd">
<svg version="1.0" xmlns="http://www.w3.org/2000/svg"
 width="640.000000pt" height="640.000000pt" viewBox="0 0 640.000000 640.000000"
 preserveAspectRatio="xMidYMid meet">
<metadata>
Created by potrace 1.11, written by Peter Selinger 2001-2013
</metadata>
<g transform="translate(0.000000,640.000000) scale(0.100000,-0.100000)"
fill="#000000" stroke="none">
<path d="M3009 6396 c-2 -2 -44 -7 -94 -11 -49 -3 -101 -8 -115 -10 -73 -9
-282 -45 -290 -50 -4 -2 -22 -7 -41 -10 -66 -11 -315 -89 -436 -136 -290 -114
-557 -266 -802 -457 -124 -97 -153 -124 -307 -278 -361 -362 -628 -805 -778
-1289 -28 -90 -80 -297 -92 -365 -4 -25 -8 -47 -9 -50 -1 -3 -5 -32 -9 -65 -5
-33 -10 -69 -12 -79 -25 -136 -25 -659 0 -792 2 -11 7 -44 11 -74 26 -204 125
-563 204 -745 53 -122 99 -219 122 -262 16 -29 43 -79 61 -110 78 -142 228
-353 354 -501 94 -109 310 -317 423 -408 312 -251 729 -470 1071 -565 25 -7
50 -14 55 -16 60 -19 184 -48 290 -67 229 -42 315 -50 570 -51 211 0 353 8
455 25 30 5 71 12 90 15 66 10 195 37 245 51 28 7 77 20 110 29 74 20 266 85
280 95 6 4 21 11 35 15 52 16 220 95 330 155 268 148 487 311 708 528 332 327
564 674 733 1094 55 138 126 359 143 448 3 14 8 36 11 50 9 38 34 180 41 230
3 25 8 54 10 65 25 131 25 639 0 785 -3 14 -7 45 -10 70 -45 346 -180 752
-361 1080 -290 527 -742 978 -1270 1267 -280 153 -637 284 -895 329 -14 2 -34
6 -45 9 -11 2 -42 7 -70 11 -27 3 -53 8 -56 10 -3 1 -36 6 -73 9 -37 3 -82 8
-99 11 -39 6 -482 15 -488 10z"/>
</g>
</svg>
